<svg width="27" height="26" viewBox="0 0 27 26" fill="none" xmlns="http://www.w3.org/2000/svg">
<path d="M8.59628 10.56L11.5165 7.70986L12.1288 7.10496L13.5889 5.67987L18.5554 10.56L21.4442 7.70986L13.5889 0L5.70746 7.70986L8.59628 10.56Z" fill="#F0B90B"/>
<path d="M13.5934 9.73751L10.6922 12.5793L13.5934 15.4212L16.4947 12.5793L13.5934 9.73751Z" fill="#F0B90B"/>
<path d="M18.5554 14.62L13.5889 19.4848L11.841 17.7777L11.5217 17.4599L8.59628 14.62L5.70746 17.4496L13.5889 25.1595L21.4442 17.4496L18.5554 14.62Z" fill="#F0B90B"/>
<path d="M3.64208 9.74971L0.740845 12.5916L3.64208 15.4334L6.54332 12.5916L3.64208 9.74971Z" fill="#F0B90B"/>
<path d="M23.5253 9.74566L20.6241 12.5875L23.5253 15.4293L26.4266 12.5875L23.5253 9.74566Z" fill="#F0B90B"/>
</svg>
