<svg width="30" height="28" viewBox="0 0 30 28" fill="none" xmlns="http://www.w3.org/2000/svg">
<rect x="0.774414" width="28.7683" height="28" rx="2" fill="#231F20"/>
<path fill-rule="evenodd" clip-rule="evenodd" d="M12.7403 14.3909L17.7109 19.2293L20.8483 16.1757C21.4095 15.6844 22.2673 15.706 22.801 16.2254C23.3346 16.7448 23.3574 17.5804 22.852 18.1259L18.7117 22.1562C18.1553 22.6887 17.2639 22.6887 16.7074 22.1562L10.7346 16.341V19.7971C10.7346 20.5602 10.0996 21.1782 9.31562 21.1782C8.53161 21.1782 7.89661 20.5602 7.89661 19.7971V8.9794C7.89661 8.21698 8.53161 7.59829 9.31562 7.59829C10.0996 7.59829 10.7346 8.21698 10.7346 8.9794V12.4355L16.7067 6.62157C17.2625 6.08911 18.1553 6.08911 18.7111 6.62157L22.854 10.6513C23.3588 11.1974 23.3366 12.0324 22.803 12.5518C22.2693 13.0711 21.4108 13.0934 20.8503 12.6014L17.7129 9.54779L12.7403 14.3909ZM17.7129 13.0078C17.1383 13.0078 16.6201 13.3442 16.4 13.861C16.1798 14.3778 16.3013 14.9723 16.7074 15.3682C17.1135 15.7641 17.725 15.8824 18.256 15.6688C18.7869 15.4545 19.1333 14.9508 19.1333 14.3909C19.1333 14.0243 18.9843 13.6729 18.7178 13.4128C18.452 13.1535 18.0902 13.0078 17.7136 13.0078H17.7129Z" fill="#23AF91"/>
</svg>
