<svg width="30" height="30" viewBox="0 0 30 30" fill="none" xmlns="http://www.w3.org/2000/svg">
<path d="M7.89069 18.7921L12.0606 13.3725L16.8172 17.1089L20.8979 11.8422" stroke="#231F20" stroke-width="2" stroke-linecap="round" stroke-linejoin="round"/>
<path fill-rule="evenodd" clip-rule="evenodd" d="M25.6544 6.72863C27.1334 6.72863 28.3323 5.52968 28.3323 4.05069C28.3323 2.5717 27.1334 1.37274 25.6544 1.37274C24.1754 1.37274 22.9764 2.5717 22.9764 4.05069C22.9764 5.52968 24.1754 6.72863 25.6544 6.72863Z" stroke="#231F20" stroke-width="2" stroke-linecap="round" stroke-linejoin="round"/>
<path d="M18.5897 2.54593H8.46455C4.2691 2.54593 1.66766 5.51717 1.66766 9.71262V20.9727C1.66766 25.1682 4.21809 28.1267 8.46455 28.1267H20.4515C24.647 28.1267 27.2484 25.1682 27.2484 20.9727V11.1664" stroke="#231F20" stroke-width="2" stroke-linecap="round" stroke-linejoin="round"/>
</svg>
