<svg width="28" height="32" viewBox="0 0 28 32" fill="none" xmlns="http://www.w3.org/2000/svg">
<path d="M10.2895 29.2834C11.0472 30.2194 12.1598 30.8251 13.3812 30.9666C14.6026 31.108 15.8319 30.7735 16.7972 30.0371C17.0941 29.8193 17.3613 29.566 17.5923 29.2834M1.10214 18.7317V18.4047C1.1509 17.437 1.46601 16.4994 2.01499 15.6885C2.92878 14.7145 3.55431 13.5209 3.82596 12.233C3.82596 11.2375 3.82596 10.2279 3.9143 9.23242C4.37073 4.4401 9.18527 1.12671 13.9409 1.12671H14.0587C18.8143 1.12671 23.6289 4.4401 24.1 9.23242C24.1884 10.2279 24.1 11.2375 24.1736 12.233C24.449 13.5239 25.0739 14.7212 25.9846 15.7028C26.5377 16.5064 26.8533 17.4406 26.8975 18.4047V18.7175C26.9303 20.0176 26.4754 21.2853 25.6165 22.2869C24.4816 23.458 22.9415 24.1865 21.2879 24.3346C16.4387 24.8466 11.5462 24.8466 6.69702 24.3346C5.0452 24.1801 3.50735 23.4526 2.36835 22.2869C1.52277 21.2846 1.07394 20.0244 1.10214 18.7317Z" stroke="#231F20" stroke-width="2" stroke-linecap="round" stroke-linejoin="round"/>
</svg>
