<svg width="30" height="24" viewBox="0 0 30 24" fill="none" xmlns="http://www.w3.org/2000/svg">
<path d="M22.2083 -0.00164795H7.79167C3.77187 -0.00164795 0.5 3.13835 0.5 6.99835V18.9984C0.5 21.7554 2.83646 23.9984 5.70833 23.9984H24.2917C27.1635 23.9984 29.5 21.7554 29.5 18.9984V6.99835C29.5 3.13835 26.2281 -0.00164795 22.2083 -0.00164795ZM27.4167 6.99835V8.99835H25.3333V3.00135C26.5979 3.91435 27.4167 5.36635 27.4167 6.99835ZM22.2083 1.99835C22.5646 1.99835 22.9135 2.03335 23.25 2.09935V8.99835H18.125C18.125 7.34435 16.7229 5.99835 15 5.99835C13.2771 5.99835 11.875 7.34435 11.875 8.99835H6.75V2.09935C7.08646 2.03335 7.43542 1.99835 7.79167 1.99835H22.2083ZM13.9583 8.99835C13.9583 8.44735 14.425 7.99835 15 7.99835C15.575 7.99835 16.0417 8.44735 16.0417 8.99835V11.9984C16.0417 12.5494 15.575 12.9984 15 12.9984C14.425 12.9984 13.9583 12.5494 13.9583 11.9984V8.99835ZM4.66667 3.00135V8.99835H2.58333V6.99835C2.58333 5.36635 3.40208 3.91435 4.66667 3.00135ZM25.3333 21.8264V13.9984C25.3333 13.4464 24.8677 12.9984 24.2917 12.9984C23.7156 12.9984 23.25 13.4464 23.25 13.9984V21.9984H6.75V13.9984C6.75 13.4464 6.28437 12.9984 5.70833 12.9984C5.13229 12.9984 4.66667 13.4464 4.66667 13.9984V21.8264C3.45417 21.4134 2.58333 20.3024 2.58333 18.9984V10.9984H11.875V11.9984C11.875 13.6524 13.2771 14.9984 15 14.9984C16.7229 14.9984 18.125 13.6524 18.125 11.9984V10.9984H27.4167V18.9984C27.4167 20.3024 26.5458 21.4134 25.3333 21.8264Z" fill="#231F20"/>
</svg>
