<svg width="30" height="27" viewBox="0 0 30 27" fill="none" xmlns="http://www.w3.org/2000/svg">
<path d="M25.3786 13.3V18.9311C25.3786 22.4887 22.4946 25.3727 18.9369 25.3727H8.31656C4.7589 25.3727 1.87488 22.4887 1.87488 18.9311V10.1211C1.87488 6.56345 4.7589 3.67943 8.31656 3.67943H16.3476" stroke="#231F20" stroke-width="2" stroke-linecap="round" stroke-linejoin="round"/>
<path d="M7.42188 9.06215H14.053" stroke="#231F20" stroke-width="2" stroke-linecap="round" stroke-linejoin="round"/>
<path d="M17.6418 13.6618H9.56867C8.30722 13.6618 7.28461 14.6844 7.28461 15.9459V17.1774C7.28461 18.4388 8.30722 19.4615 9.56867 19.4615H17.6418C18.9033 19.4615 19.9259 18.4388 19.9259 17.1774V15.9459C19.9259 14.6844 18.9033 13.6618 17.6418 13.6618Z" stroke="#231F20" stroke-width="2" stroke-linecap="round" stroke-linejoin="round"/>
<path d="M28.125 4.54878L21.9885 1.00165V8.08539L28.125 4.54878Z" stroke="#231F20" stroke-width="2" stroke-linecap="round" stroke-linejoin="round"/>
</svg>
