<svg width="48" height="47" viewBox="0 0 48 47" fill="none" xmlns="http://www.w3.org/2000/svg">
<path d="M5.31397 42.1197C3.49891 42.1197 2.16495 41.9057 1.31209 41.4565C0.459232 41.0073 0.0218682 40.2372 0 39.1462C0 38.1195 0.459232 37.4563 1.39957 37.1568C2.01188 37.0071 2.51484 36.6648 2.90847 36.0873C3.3021 35.5097 3.7832 34.5471 4.35177 33.1994C8.17871 24.2151 11.3277 16.343 13.777 9.54056C14.1925 8.47099 14.3674 7.31586 14.2799 6.07516C14.1925 4.83445 14.2362 3.93602 14.3674 3.40123C14.6517 2.33166 15.4171 1.54018 16.6198 1.04818C17.8445 0.556176 19.9219 0.235305 22.896 0.0855655C23.8801 0.0213913 24.7329 0 25.4546 0C26.1762 0 26.8323 0.0427829 27.4883 0.106957C28.1225 0.171131 28.6474 0.278088 29.0628 0.385045C29.4783 0.492002 29.872 0.684525 30.2656 0.941221C30.6592 1.19792 30.9872 1.47601 31.2278 1.7327C31.4683 2.01079 31.7308 2.39584 31.9932 2.88784C32.2556 3.37984 32.4743 3.87184 32.6492 4.38524C32.8242 4.89863 33.0429 5.51898 33.3053 6.28907C34.1363 8.64212 35.1859 11.7011 36.4543 15.466C37.7227 19.2095 38.8817 22.5679 39.9095 25.4985C40.9373 28.4292 41.9214 31.1245 42.8836 33.5631C43.4303 34.9535 43.9114 35.8948 44.3269 36.4082C44.7642 36.9215 45.3547 37.1996 46.12 37.2852C46.8417 37.4135 47.2135 38.0125 47.2135 39.1035C47.2135 40.1516 46.7542 40.9217 45.8795 41.4137C45.0048 41.9057 43.6489 42.141 41.7683 42.141H30.1781C27.707 42.141 25.9138 41.9271 24.8423 41.4779C23.7489 41.0287 23.224 40.2586 23.224 39.1676C23.224 38.5687 23.3115 38.1195 23.5083 37.8414C23.7051 37.5633 24.055 37.4135 24.5361 37.4135C25.8045 37.3494 26.5917 36.9857 26.8323 36.344C27.0728 35.7022 26.9635 34.6754 26.4824 33.3278L25.214 29.4773L12.3555 29.6057L11.0872 33.0925C10.6061 34.3332 10.5623 35.2958 10.956 36.0231C11.3496 36.729 12.2243 37.1782 13.5583 37.3066C14.5424 37.4349 15.0016 38.0339 14.9579 39.1249C14.9579 40.2372 14.5205 41.0073 13.6676 41.4779C12.8148 41.9485 11.3933 42.1624 9.44707 42.1624H5.33584L5.31397 42.1197ZM14.1925 24.2578L23.4427 24.322L20.25 14.7815L18.916 10.824L14.1925 24.2578Z" fill="#231F20"/>
<path d="M27.3844 46.8395C26.741 46.8395 26.0975 46.7765 25.497 46.4828C24.489 46.0003 23.8027 45.224 23.481 44.154C23.3308 43.6296 23.5668 43.3149 24.1029 43.189C25.2396 42.9372 26.3764 42.6855 27.5131 42.4337C28.1994 42.2869 28.8857 42.119 29.572 41.9722C30.3227 41.8043 30.7087 42.14 30.7087 42.9162C30.7087 44.6366 29.9366 45.8534 28.3495 46.5667C28.3281 46.5667 28.3066 46.6087 28.2852 46.6297C27.9849 46.6926 27.6632 46.7555 27.3629 46.8395H27.3844Z" fill="#231F20"/>
<path d="M24.9827 41.6575C20.9291 42.119 16.8756 42.5806 12.8435 43.0841C11.3422 43.2729 10.2912 42.2449 10.1411 40.7973C10.0768 40.105 10.184 39.3917 10.4414 38.7623C10.7845 37.986 11.4065 37.3776 11.8783 36.6853C12.3287 36.0349 12.5647 35.2796 12.5861 34.5034C12.629 33.2236 12.5861 31.9439 12.629 30.6641C12.7148 27.1185 13.4011 23.7618 15.5458 20.8456C16.4681 19.5658 17.6691 18.5798 19.1061 17.9294C19.2991 17.8455 19.3849 17.7196 19.4064 17.5098C19.4707 16.4189 20.2428 15.4538 21.3366 15.0971C22.3661 14.7405 23.61 15.0552 24.2964 15.9153C24.5537 16.2091 24.6824 16.6077 24.8969 16.9433C24.9612 17.0482 25.0685 17.1741 25.1971 17.1951C27.8995 17.7616 29.8941 19.335 31.5027 21.496C32.9611 23.468 33.8833 25.6709 34.5053 28.0206C34.827 29.2584 35.1058 30.5172 35.4275 31.755C35.6635 32.6362 36.0924 33.4544 36.7573 34.0628C37.9154 35.1328 39.2023 35.7831 39.3524 37.5454C39.4596 38.8881 38.709 40.1259 37.3149 40.2938C33.2185 40.7553 29.1006 41.2379 25.0041 41.7204L24.9827 41.6575Z" fill="#F0E303"/>
<path d="M38.5162 25.1254C38.5162 25.1254 38.5162 25.3142 38.5162 25.3981C38.5162 25.7128 38.2802 25.9646 37.98 25.9646C37.6797 25.9646 37.4223 25.7338 37.4223 25.4401C37.3794 24.7687 37.2937 24.0974 37.1006 23.447C36.6931 21.9784 35.921 20.7197 34.8272 19.6707C34.6556 19.5238 34.5269 19.356 34.5698 19.1042C34.6127 18.8944 34.72 18.7266 34.9344 18.6427C35.1489 18.5587 35.3634 18.6007 35.5135 18.7685C35.9639 19.2721 36.4358 19.7546 36.8433 20.3001C37.8727 21.7267 38.4089 23.3421 38.5162 25.1044V25.1254Z" fill="#F0E303"/>
<path d="M36.1351 25.3352C36.178 25.5869 36.1137 25.8387 35.8134 25.9855C35.4703 26.1534 35.0842 25.9436 35.0199 25.545C34.9555 25.1254 34.9341 24.7058 34.8483 24.3072C34.5909 23.1952 34.0333 22.2302 33.1968 21.4329C33.0896 21.328 32.9824 21.1812 32.9395 21.0343C32.8751 20.8036 33.0038 20.5518 33.2183 20.4469C33.4328 20.342 33.6901 20.384 33.8617 20.5518C34.5695 21.2022 35.1057 21.9574 35.4917 22.8386C35.8563 23.6358 36.0279 24.454 36.0922 25.3562L36.1351 25.3352Z" fill="#F0E303"/>
<path d="M8.76852 24.4121C8.81141 24.1604 8.85431 23.9086 8.8972 23.6779C9.28325 21.7477 10.184 20.1323 11.621 18.7896C11.8569 18.5798 12.1786 18.5798 12.3931 18.7896C12.6076 19.0204 12.5861 19.3351 12.3502 19.5658C11.814 20.0693 11.3636 20.6148 10.9776 21.2442C10.3556 22.2512 9.99102 23.3632 9.86233 24.538C9.86233 24.7059 9.81944 24.8947 9.81944 25.0625C9.81944 25.3562 9.64786 25.566 9.36904 25.608C9.13312 25.6499 8.91865 25.5241 8.78996 25.2513C8.78996 25.2513 8.78997 25.2304 8.74707 25.2094C8.74707 24.9366 8.74707 24.6639 8.76852 24.3912V24.4121Z" fill="#F0E303"/>
<path d="M11.0205 24.9576C11.1492 23.2163 11.8569 21.7057 13.1438 20.4679C13.3797 20.2371 13.7014 20.2371 13.9159 20.4679C14.1303 20.6777 14.1303 21.0134 13.873 21.2442C13.2724 21.8106 12.8006 22.461 12.5003 23.2372C12.243 23.8666 12.1143 24.496 12.0714 25.1674C12.0714 25.3981 11.9642 25.587 11.7282 25.6709C11.3851 25.8177 11.0205 25.566 10.999 25.1883C10.999 25.1254 10.999 25.0625 10.999 24.9576H11.0205Z" fill="#F0E303"/>
</svg>
